<svg width="68" height="80" xmlns="http://www.w3.org/2000/svg" xmlns:xlink="http://www.w3.org/1999/xlink" xml:space="preserve" overflow="hidden"><defs><clipPath id="clip0"><rect x="717" y="261" width="68" height="80"/></clipPath></defs><g clip-path="url(#clip0)" transform="translate(-717 -261)"><path d="M1363.87 714.909 1359.38 707.125 1349.77 690.523C1347.54 686.647 1343.4 684.259 1338.93 684.261L1328.37 684.261 1328.21 684.357 1340.48 705.581 1340.51 705.627C1340.66 705.845 1340.79 706.065 1340.92 706.289L1350.52 722.886 1355.03 730.672C1355.19 730.951 1355.53 731.629 1355.53 731.629 1357.67 735.985 1357.75 741.076 1355.72 745.49L1363.95 730.936C1366.77 725.953 1366.74 719.85 1363.87 714.895" fill="#FFC200" transform="matrix(1 0 0 1.03199 -605.966 -445.155)"/><path d="M1378.38 684.261 1356.27 722.82C1356.16 719.56 1355.26 716.376 1353.66 713.536L1348.44 704.507 1356.61 690.044C1358.62 686.469 1362.41 684.259 1366.52 684.261Z" fill="#FFC200" transform="matrix(1 0 0 1.03199 -593.375 -445.155)"/><path d="M1355.52 730.601 1350.66 739.214C1350.61 739.294 1350.56 739.376 1350.51 739.459 1347.91 743.863 1343.17 746.563 1338.06 746.559L1328.6 746.559 1341.47 723.8 1350.34 708.092 1355.33 716.723 1355.33 716.723C1357.48 721.08 1357.55 726.171 1355.52 730.585" fill="#FCE68B" transform="matrix(1 0 0 1.03199 -605.733 -429.839)"/><path d="M1205.16 716.62 1205.16 726.285 1211.72 726.285C1214.39 726.336 1216.6 724.214 1216.65 721.545 1216.7 718.876 1214.58 716.672 1211.91 716.62 1211.85 716.619 1211.79 716.619 1211.72 716.62ZM1211.72 712.753C1216.53 712.515 1220.61 716.216 1220.85 721.019 1221.09 725.822 1217.39 729.909 1212.58 730.147 1212.3 730.161 1212.01 730.161 1211.72 730.147L1205.16 730.147 1205.16 739.811 1200.9 739.811 1200.9 712.753Z" fill="#FFC200" transform="matrix(1 0 0 1.03199 -685.229 -426.85)"/><path d="M1224.85 721.237C1221.95 721.237 1220.02 723.17 1220.02 726.65L1220.02 736.701 1216.15 736.701 1216.15 718.143 1220.02 718.143 1220.02 720.076C1221.52 718.607 1223.52 717.776 1225.62 717.758L1226.59 717.758 1226.59 721.43C1226.02 721.302 1225.44 721.237 1224.85 721.237" fill="#FFC200" transform="matrix(1 0 0 1.03199 -675.737 -423.633)"/><path d="M1233.44 721.237C1230.02 721.016 1227.08 723.607 1226.85 727.024 1226.63 730.441 1229.23 733.39 1232.64 733.61 1236.06 733.831 1239.01 731.24 1239.23 727.823 1239.24 727.69 1239.24 727.556 1239.24 727.422 1239.33 724.121 1236.74 721.364 1233.44 721.237M1233.44 717.758C1238.78 717.759 1243.11 722.088 1243.1 727.426 1243.1 732.764 1238.78 737.091 1233.44 737.09 1228.1 737.089 1223.77 732.76 1223.77 727.422 1223.86 722.119 1228.14 717.841 1233.44 717.758" fill="#FFC200" transform="matrix(1 0 0 1.03199 -670.991 -423.633)"/><path d="M1253.18 730.539C1252.87 727.443 1250.12 725.18 1247.02 725.485 1243.92 725.789 1241.66 728.547 1241.96 731.643 1242.25 734.526 1244.67 736.724 1247.57 736.724 1250.8 736.51 1253.28 733.774 1253.18 730.539M1253.18 723.386 1253.18 712.753 1257.04 712.753 1257.04 739.818 1253.18 739.818 1253.18 737.688C1251.58 739.264 1249.43 740.165 1247.18 740.203 1241.85 739.863 1237.79 735.261 1238.13 729.922 1238.44 725.057 1242.32 721.181 1247.18 720.871 1249.43 720.91 1251.58 721.81 1253.18 723.386" fill="#FFC200" transform="matrix(1 0 0 1.03199 -662.072 -426.85)"/><path d="M1265.98 734.621C1264.49 736.09 1262.48 736.921 1260.38 736.939 1255.93 736.939 1252.84 733.845 1252.84 728.821L1252.84 717.994 1256.71 717.994 1256.71 728.821C1256.59 731.261 1258.47 733.335 1260.91 733.455 1260.99 733.459 1261.07 733.461 1261.15 733.46 1264.05 733.46 1265.98 731.527 1265.98 728.049L1265.98 717.996 1269.85 717.996 1269.85 736.554 1265.98 736.554Z" fill="#FFC200" transform="matrix(1 0 0 1.03199 -652.896 -423.481)"/><path d="M1275.73 717.749C1278.66 717.801 1281.42 719.145 1283.27 721.421L1280.75 723.936C1279.6 722.29 1277.74 721.286 1275.73 721.23 1272.31 721.454 1269.72 724.405 1269.95 727.822 1270.15 730.926 1272.62 733.398 1275.73 733.602 1277.82 733.483 1279.74 732.415 1280.95 730.702L1283.46 733.215C1281.56 735.562 1278.74 736.972 1275.73 737.083 1270.39 737.083 1266.06 732.755 1266.06 727.417 1266.06 722.079 1270.39 717.751 1275.73 717.751" fill="#FFC200" transform="matrix(1 0 0 1.03199 -644.665 -423.633)"/><path d="M1282.08 714.184 1285.56 714.184 1285.56 720.369 1289.43 720.369 1289.43 723.848 1285.56 723.848 1285.56 733.474C1285.5 734.712 1286.45 735.767 1287.68 735.832 1287.75 735.835 1287.82 735.836 1287.88 735.833 1288.54 735.813 1289.2 735.682 1289.82 735.448L1289.82 738.927C1288.94 739.188 1288.03 739.319 1287.11 739.315 1283.63 739.315 1281.7 737.381 1281.7 733.515L1281.7 723.848 1278.21 723.848 1278.21 720.369 1280.15 720.369C1281.31 720.369 1282.08 719.595 1282.08 718.051Z" fill="#FFC200" transform="matrix(1 0 0 1.03199 -637.1 -425.93)"/><path d="M1292.35 739.669 1288.48 739.669 1288.48 721.111 1292.35 721.111ZM1290.42 717.632C1289.13 717.631 1288.1 716.592 1288.1 715.311 1288.1 714.029 1289.14 712.992 1290.42 712.993 1291.7 712.994 1292.74 714.031 1292.74 715.311 1292.79 716.543 1291.83 717.582 1290.6 717.632 1290.54 717.635 1290.48 717.635 1290.42 717.632" fill="#FFC200" transform="matrix(1 0 0 1.03199 -630.945 -426.696)"/><path d="M1303.12 721.237C1299.71 721.016 1296.76 723.607 1296.54 727.024 1296.32 730.441 1298.91 733.39 1302.33 733.61 1305.74 733.831 1308.69 731.24 1308.91 727.823 1308.92 727.69 1308.93 727.556 1308.93 727.422 1309.01 724.121 1306.43 721.364 1303.12 721.237M1303.12 717.758C1308.46 717.759 1312.79 722.088 1312.79 727.426 1312.79 732.764 1308.46 737.091 1303.12 737.09 1297.78 737.089 1293.46 732.76 1293.46 727.422 1293.54 722.119 1297.82 717.841 1303.12 717.758" fill="#FFC200" transform="matrix(1 0 0 1.03199 -627.607 -423.633)"/><path d="M1311.86 720.078C1313.36 718.603 1315.37 717.767 1317.47 717.749 1321.91 717.749 1325.01 720.843 1325.01 725.871L1325.01 736.698 1321.14 736.698 1321.14 725.871C1321.26 723.431 1319.38 721.356 1316.94 721.237 1316.86 721.233 1316.78 721.231 1316.7 721.232 1313.8 721.232 1311.86 723.164 1311.86 726.643L1311.86 736.696 1308 736.696 1308 718.145 1311.86 718.145Z" fill="#FFC200" transform="matrix(1 0 0 1.03199 -618.558 -423.635)"/><path d="M1195.5 700.904 1204.4 684.725 1213.03 684.725 1199.54 708.994 1199.54 722.483 1191.46 722.483 1191.46 708.994 1177.97 684.725 1186.6 684.725Z" fill="#FFFFFF" transform="matrix(1 0 0 1.03199 -699.504 -444.858)"/><path d="M0 0 8.08977 0 8.08977 37.7528 1.55722e-07 37.7528Z" fill="#FFFFFF" transform="matrix(1 0 0 1.03199 521.619 261.77)"/><path d="M1250.91 684.725 1250.91 722.477 1243.91 722.477 1225.3 698.48 1225.3 722.477 1217.19 722.477 1217.19 684.725 1224.2 684.725 1242.81 708.726 1242.81 684.725Z" fill="#FFFFFF" transform="matrix(1 0 0 1.03199 -675.084 -444.858)"/><path d="M1244.81 695.281C1244.81 689.348 1249.93 684.226 1258.02 684.226 1262.7 684.055 1267.23 685.925 1270.42 689.35L1265.57 694.474C1263.77 692.486 1261.24 691.316 1258.56 691.237 1255.32 691.237 1253.44 693.125 1253.44 695.283 1253.44 702.292 1272.05 698.249 1272.05 711.733 1272.05 718.477 1266.92 723.596 1257.75 723.596 1252.32 723.696 1247.1 721.433 1243.46 717.394L1248.31 712.538C1250.58 715.082 1253.81 716.552 1257.21 716.585 1261.26 716.585 1263.42 714.429 1263.42 711.733 1263.42 704.724 1244.82 708.767 1244.82 695.283" fill="#FFFFFF" transform="matrix(1 0 0 1.03199 -658.736 -445.179)"/><path d="M1286.39 684.228C1297.26 684.665 1305.72 693.833 1305.28 704.704 1304.84 715.576 1295.68 724.035 1284.8 723.598 1274.24 723.173 1265.89 714.484 1265.9 703.911 1266.06 692.878 1275.13 684.063 1286.16 684.223 1286.24 684.224 1286.31 684.226 1286.39 684.228M1286.39 716.315C1293.24 716.464 1298.91 711.032 1299.06 704.182 1299.21 697.332 1293.78 691.658 1286.93 691.509 1280.08 691.36 1274.4 696.792 1274.25 703.642 1274.25 703.732 1274.25 703.822 1274.25 703.913 1274.11 710.619 1279.43 716.17 1286.14 716.312 1286.22 716.314 1286.3 716.315 1286.39 716.315" fill="#FFFFFF" transform="matrix(1 0 0 1.03199 -644.766 -445.177)"/><path d="M1331.18 684.725 1331.18 722.477 1324.17 722.477 1305.56 698.48 1305.56 722.477 1297.47 722.477 1297.47 684.725 1304.48 684.725 1323.09 708.726 1323.09 684.725Z" fill="#FFFFFF" transform="matrix(1 0 0 1.03199 -625.108 -444.858)"/></g></svg>